<svg width="20" height="17" viewBox="0 0 20 17" fill="none" xmlns="http://www.w3.org/2000/svg">
<path d="M2.09097 9.5H18M18 13.0001L14 13.0001M18 13.0001V13.9999C18 15.1045 17.1046 16 16 16C14.8954 16 14 15.1046 14 14V13.0001M18 13.0001V4M14 13.0001L6 13M6 13H2M6 13V14C6 15.1046 5.10457 16 4 16C2.89543 16 2 15.1046 2 14V13M2 13V4M18 4C18.5523 4 19 4.44772 19 5V6M18 4C18 2.34315 16.6569 1 15 1H5C3.34315 1 2 2.34315 2 4M2 4C1.44772 4 1 4.44772 1 5V6" stroke="white" stroke-width="2" stroke-linecap="round" stroke-linejoin="round"/>
</svg>
