<svg width="500" height="562" viewBox="0 0 500 562" fill="none" xmlns="http://www.w3.org/2000/svg">
<circle cx="250" cy="250" r="237.5" fill="#2D3A89" stroke="white" stroke-width="25"/>
<path d="M250 562L84 437L250 491.5L416 437L250 562Z" fill="white"/>
<path d="M136.91 270.733H325.167M325.167 311.801H277.833M325.167 311.801V323.532C325.167 336.493 314.571 347 301.5 347C288.429 347 277.833 336.494 277.833 323.533V311.801M325.167 311.801L325.167 262M277.833 311.801L183.167 311.8M325.167 206.2C331.702 206.2 337 211.453 337 217.933V229.667M325.167 206.2C325.167 186.76 309.273 171 289.667 171H171.333C151.727 171 135.833 186.76 135.833 206.2M325.167 206.2L325.167 229.667M183.167 311.8H135.833M183.167 311.8V323.533C183.167 336.494 172.571 347 159.5 347C146.429 347 135.833 336.494 135.833 323.533V311.8M135.833 311.8V206.2M135.833 206.2C129.298 206.2 124 211.453 124 217.933V229.667" stroke="white" stroke-width="17" stroke-linecap="round" stroke-linejoin="round"/>
<path d="M374.637 146.504C379.144 146.504 382.139 150.898 380.809 155.006L375.167 172.429C374.346 174.963 371.975 176.926 369.006 176.926H333.604C337.513 181.231 343.159 187.328 348.409 192.969C351.967 196.791 355.32 200.378 357.783 203.01C359.015 204.326 360.025 205.403 360.726 206.15C361.076 206.524 361.349 206.816 361.535 207.014C361.628 207.113 361.698 207.188 361.746 207.239C361.77 207.265 361.789 207.284 361.801 207.297C361.806 207.303 361.811 207.307 361.813 207.311L361.818 207.315L361.904 207.407L361.985 207.502L357.809 211.08C361.909 207.567 361.984 207.503 361.986 207.503L361.987 207.505C361.988 207.506 361.989 207.507 361.99 207.508L362.014 207.535C362.027 207.551 362.044 207.572 362.065 207.597C362.108 207.647 362.165 207.716 362.235 207.801C362.375 207.971 362.568 208.209 362.799 208.503C363.258 209.089 363.88 209.916 364.537 210.886C365.736 212.655 367.5 215.539 368.163 218.517C368.841 221.559 369.064 224.56 368.485 227.604C367.903 230.668 366.58 233.404 364.692 236.017C361.645 240.234 356.955 244.5 349.993 244.5H282.505C277.567 244.5 274.793 239.451 276.584 235.382L284.192 218.094C285.231 215.735 287.564 214.213 290.142 214.213H327.745C324.241 210.293 319.993 205.562 316.041 201.171C312.75 197.514 309.673 194.102 307.419 191.604C306.292 190.355 305.371 189.334 304.731 188.626C304.412 188.272 304.162 187.995 303.993 187.808C303.909 187.714 303.843 187.643 303.8 187.595C303.795 187.59 303.791 187.585 303.787 187.58C303.783 187.576 303.779 187.572 303.774 187.567C303.717 187.506 303.643 187.427 303.547 187.322C303.355 187.113 303.057 186.782 302.597 186.26C301.676 185.216 300.071 183.37 297.299 180.122C295.365 177.856 294.426 174.783 293.961 172.41C293.467 169.892 293.31 167.122 293.599 164.808C293.937 162.094 294.639 159.709 295.892 157.516C297.125 155.356 298.721 153.684 300.399 152.2C305.913 147.324 312.013 146.503 317.246 146.501C323.94 146.498 366.449 146.503 374.637 146.504Z" fill="white" stroke="#2D3A89" stroke-width="11"/>
</svg>
