<svg width="500" height="562" viewBox="0 0 500 562" fill="none" xmlns="http://www.w3.org/2000/svg">
<circle cx="250" cy="250" r="237.5" fill="#003B79" stroke="white" stroke-width="25"/>
<path d="M250 562L84 437L250 491.5L416 437L250 562Z" fill="white"/>
<path d="M136.91 270.733H325.167M325.167 311.801H277.833M325.167 311.801V323.532C325.167 336.493 314.571 347 301.5 347C288.429 347 277.833 336.494 277.833 323.533V311.801M325.167 311.801L325.167 262M277.833 311.801L183.167 311.8M325.167 206.2C331.702 206.2 337 211.453 337 217.933V229.667M325.167 206.2C325.167 186.76 309.273 171 289.667 171H171.333C151.727 171 135.833 186.76 135.833 206.2M325.167 206.2L325.167 229.667M183.167 311.8H135.833M183.167 311.8V323.533C183.167 336.494 172.571 347 159.5 347C146.429 347 135.833 336.494 135.833 323.533V311.8M135.833 311.8V206.2M135.833 206.2C129.298 206.2 124 211.453 124 217.933V229.667" stroke="white" stroke-width="17" stroke-linecap="round" stroke-linejoin="round"/>
<path d="M370.069 225.575L378.756 248.002L380.074 251.405H356.837L356.228 249.785L351.16 236.302L350.442 234.392L352.171 233.306L366.408 224.361L368.975 222.749L370.069 225.575ZM344.592 159.5L345.212 161.092L359.208 197.002L359.974 198.967L358.167 200.053L344.171 208.463L341.604 210.005L340.545 207.205L334.824 192.091L324.837 219.069L324.515 219.939L323.702 220.389V220.39H323.701C323.7 220.39 323.7 220.391 323.698 220.392C323.696 220.393 323.692 220.396 323.687 220.398C323.676 220.404 323.66 220.413 323.639 220.425C323.597 220.448 323.534 220.482 323.454 220.526C323.294 220.615 323.06 220.744 322.767 220.906C322.179 221.23 321.352 221.685 320.393 222.212C318.475 223.264 316.024 224.603 313.902 225.743C313.075 226.188 312.286 226.519 311.417 226.723C310.558 226.924 309.727 226.976 308.858 226.976H299.549L300.854 223.579L324.864 161.104L325.48 159.5H344.592Z" fill="white" stroke="#003B79" stroke-width="5"/>
<path d="M359.31 179.47L396.592 189.081L399.326 189.786L398.295 192.415L381.283 235.801L378.946 241.759L376.626 235.795L370.603 220.322C369.577 220.964 368.28 221.777 366.774 222.717C362.885 225.146 357.605 228.433 352.047 231.866C340.981 238.702 328.669 246.205 324.132 248.583C322.857 249.251 320.823 250.141 318.615 250.867C316.446 251.581 313.881 252.213 311.622 252.206C307.47 252.193 304.992 251.351 301.416 249.708C296.28 247.348 293.897 244.212 290.358 240.836C288.981 239.522 287.335 237.768 286.058 236.371C285.413 235.667 284.853 235.042 284.453 234.593C284.253 234.368 284.093 234.188 283.982 234.062C283.927 234 283.884 233.951 283.854 233.918C283.84 233.902 283.829 233.889 283.821 233.88C283.817 233.875 283.814 233.872 283.812 233.869C283.811 233.868 283.81 233.867 283.81 233.866H283.809V233.865L283.326 233.314L283.217 232.591L281.528 221.377L280.514 214.641L285.645 219.121L285.646 219.123C285.647 219.124 285.65 219.127 285.654 219.13C285.662 219.137 285.674 219.147 285.69 219.161C285.723 219.189 285.772 219.232 285.836 219.287C285.965 219.398 286.155 219.56 286.395 219.761C286.873 220.163 287.546 220.719 288.321 221.332C289.902 222.582 291.796 223.98 293.311 224.833C296.33 226.533 297.917 227.337 300.976 228.048C304.482 228.863 306.436 228.985 309.897 228.416C311.714 228.117 314.097 227.153 316.172 226.157C317.177 225.675 318.054 225.212 318.679 224.871C318.99 224.701 319.238 224.561 319.405 224.466C319.488 224.418 319.552 224.382 319.593 224.358C319.611 224.348 319.625 224.34 319.635 224.334L362.365 198.708L356.347 182.774L354.645 178.267L359.31 179.47Z" fill="white" stroke="#003B79" stroke-width="5"/>
<path d="M327 218C331.63 216.261 341.556 212.696 342 212.348L335.333 198L327 218Z" fill="#003B79"/>
</svg>
