<svg width="500" height="562" viewBox="0 0 500 562" fill="none" xmlns="http://www.w3.org/2000/svg">
<circle cx="250" cy="250" r="237.5" fill="#FF9600" stroke="white" stroke-width="25"/>
<path d="M250 562L84 437L250 491.5L416 437L250 562Z" fill="white"/>
<path d="M136.91 270.733H325.167M325.167 311.801H277.833M325.167 311.801V323.532C325.167 336.493 314.571 347 301.5 347C288.429 347 277.833 336.494 277.833 323.533V311.801M325.167 311.801L325.167 251.5M277.833 311.801L183.167 311.8M325.167 206.2C331.702 206.2 337 211.453 337 217.933V229.667M325.167 206.2C325.167 186.76 309.273 171 289.667 171H171.333C151.727 171 135.833 186.76 135.833 206.2M325.167 206.2L325.167 229.667M183.167 311.8H135.833M183.167 311.8V323.533C183.167 336.494 172.571 347 159.5 347C146.429 347 135.833 336.494 135.833 323.533V311.8M135.833 311.8V206.2M135.833 206.2C129.298 206.2 124 211.453 124 217.933V229.667" stroke="white" stroke-width="17" stroke-linecap="round" stroke-linejoin="round"/>
<path d="M345.391 213.417L345.459 213.345L345.542 213.261L351.627 207.152H291.188L284.641 213.726H345.053C345.059 213.725 345.065 213.724 345.071 213.723C345.171 213.632 345.262 213.547 345.327 213.482C345.357 213.452 345.379 213.429 345.391 213.417ZM345.391 213.417H345.392H345.391ZM345.391 213.417C345.393 213.415 345.395 213.414 345.396 213.412C345.398 213.411 345.399 213.409 345.399 213.408C345.398 213.41 345.394 213.413 345.391 213.417ZM408.1 186.25L396.813 197.731L389.538 205.134L387.555 207.152H381.106L380.205 208.058L358.892 229.455L358.562 229.786L358.188 230.068L354.108 224.691L358.188 230.069L358.185 230.072C358.183 230.073 358.181 230.074 358.18 230.075C358.176 230.078 358.172 230.081 358.167 230.085C358.158 230.092 358.146 230.1 358.133 230.11C358.105 230.131 358.069 230.158 358.025 230.19C357.937 230.256 357.817 230.344 357.67 230.45C357.378 230.66 356.968 230.948 356.491 231.264C355.649 231.821 354.182 232.743 352.663 233.345C350.613 234.156 348.293 234.453 346.942 234.585C346.176 234.66 345.503 234.701 345.018 234.723C344.773 234.734 344.571 234.74 344.424 234.744C344.35 234.746 344.289 234.747 344.243 234.748C344.22 234.748 344.201 234.749 344.186 234.749H344.157C344.156 234.749 344.154 234.75 344.153 234.75H344.151C344.151 234.75 344.149 234.695 344.074 228L344.15 234.75H344.073L243.998 234.726L227.753 234.722L239.218 223.212L246.688 215.712L248.667 213.726H255.018L255.812 212.926L276.783 191.799L277.016 191.564L277.27 191.354L281.574 196.554C277.376 191.482 277.273 191.357 277.271 191.354L277.271 191.353C277.272 191.352 277.274 191.351 277.274 191.351C277.276 191.349 277.278 191.347 277.28 191.346C277.284 191.342 277.289 191.338 277.294 191.334C277.304 191.325 277.318 191.315 277.333 191.303C277.364 191.278 277.404 191.245 277.453 191.205C277.551 191.126 277.685 191.02 277.849 190.893C278.174 190.64 278.63 190.294 279.165 189.918C280.1 189.26 281.77 188.147 283.553 187.472C285.52 186.727 287.719 186.478 288.974 186.371C289.691 186.31 290.321 186.28 290.774 186.266C291.003 186.258 291.192 186.254 291.331 186.252C291.4 186.251 291.457 186.25 291.501 186.25H408.1ZM344.864 213.75C344.861 213.75 344.859 213.751 344.856 213.751C344.852 213.751 344.849 213.752 344.847 213.752C344.843 213.752 344.844 213.752 344.849 213.752C344.853 213.752 344.859 213.751 344.867 213.75H344.864ZM291.225 207.146H291.227C291.228 207.145 291.229 207.145 291.229 207.145C291.228 207.145 291.226 207.145 291.225 207.146ZM291.238 207.145C291.243 207.144 291.246 207.145 291.249 207.145C291.25 207.144 291.251 207.144 291.252 207.144C291.249 207.144 291.245 207.144 291.238 207.145Z" fill="white" stroke="#FF9600" stroke-width="13.5"/>
</svg>
