<svg width="22" height="15" viewBox="0 0 22 15" fill="none" xmlns="http://www.w3.org/2000/svg">
<path d="M16.0238 4.48201C15.0532 2.42412 12.9594 1 10.5333 1C8.10957 1 6.01817 2.42137 5.04642 4.47604C2.78712 4.62392 1 6.50318 1 8.79988C1 11.1931 2.9401 13.1334 5.33334 13.1334L11.8333 13.1334" stroke="#11335C" stroke-width="2" stroke-linecap="round" stroke-linejoin="round"/>
<path d="M16.2194 7.35786C16.2194 9.55896 18.0037 11.3433 20.2048 11.3433C20.6074 11.3433 20.9961 11.2837 21.3625 11.1727C20.8665 12.8092 19.3463 14.0002 17.5479 14.0002C15.3468 14.0002 13.5625 12.216 13.5625 10.0149C13.5625 8.21643 14.7537 6.6962 16.3902 6.2002C16.2791 6.56658 16.2194 6.95521 16.2194 7.35786Z" stroke="#F1C40F" stroke-linecap="round" stroke-linejoin="round"/>
</svg>
