<svg width="24" height="16" viewBox="0 0 24 16" fill="none" xmlns="http://www.w3.org/2000/svg">
<path d="M17.1795 4.74985C16.1342 2.53367 13.8794 1 11.2667 1C8.65646 1 6.40418 2.5307 5.35768 4.74343C2.92459 4.90268 1 6.92649 1 9.39986C1 11.9772 3.08934 14.0667 5.66667 14.0667L12.6667 14.0667" stroke="#11335C" stroke-width="2" stroke-linecap="round" stroke-linejoin="round"/>
<path d="M18.7331 6.59984V5.6665M18.7331 14.0665V14.9998M16.1264 7.72647L15.4664 7.0665M21.4062 13.0062L22.0661 13.6662M14.9997 10.3332H14.0664M22.4664 10.3332H23.3997M21.4064 7.72647L22.0663 7.0665M16.1266 13.0062L15.4666 13.6662M18.7331 12.6665C17.4444 12.6665 16.3997 11.6218 16.3997 10.3332C16.3997 9.04451 17.4444 7.99984 18.7331 7.99984C20.0217 7.99984 21.0664 9.04451 21.0664 10.3332C21.0664 11.6218 20.0217 12.6665 18.7331 12.6665Z" stroke="#F1C40F" stroke-linecap="round" stroke-linejoin="round"/>
</svg>
