<svg width="500" height="562" viewBox="0 0 500 562" fill="none" xmlns="http://www.w3.org/2000/svg">
<circle cx="250" cy="250" r="237.5" fill="#11335C" stroke="white" stroke-width="25"/>
<path d="M250 562L84 437L250 491.5L416 437L250 562Z" fill="white"/>
<path d="M141.849 263.467H358.389M358.389 310.601H303.944M358.389 310.601V324.065C358.389 338.941 346.201 351 331.167 351C316.132 351 303.944 338.942 303.944 324.067V310.601M358.389 310.601V189.4M303.944 310.601L195.056 310.6M358.389 189.4C365.906 189.4 372 195.429 372 202.867V216.333M358.389 189.4C358.389 167.088 340.108 149 317.556 149H181.444C158.893 149 140.611 167.088 140.611 189.4M195.056 310.6H140.611M195.056 310.6V324.067C195.056 338.942 182.868 351 167.833 351C152.799 351 140.611 338.942 140.611 324.067V310.6M140.611 310.6V189.4M140.611 189.4C133.094 189.4 127 195.429 127 202.867V216.333" stroke="white" stroke-width="17" stroke-linecap="round" stroke-linejoin="round"/>
</svg>
