<svg width="265" height="238" viewBox="0 0 265 238" fill="none" xmlns="http://www.w3.org/2000/svg">
<path d="M116.962 42.9718L31.8988 92.0832C21.9901 97.804 17.0331 100.666 14.0575 104.537C10.0901 109.699 8.33907 116.221 9.1823 122.666C9.81473 127.5 12.6686 132.443 18.3764 142.329C35.9936 132.158 58.4991 138.156 68.6474 155.734C78.7956 173.311 72.7422 195.808 55.125 205.979C60.8328 215.865 63.6867 220.809 67.5566 223.773C72.7166 227.726 79.2379 229.467 85.6919 228.612C90.5324 227.971 95.4902 225.11 105.399 219.389L190.462 170.278M116.962 42.9718L159.494 18.4161C169.403 12.6954 174.357 9.835 179.197 9.19378C185.651 8.33882 192.176 10.0822 197.336 14.035C201.206 16.9996 204.06 21.9427 209.768 31.8289C192.151 42.0002 186.096 64.4918 196.244 82.069C206.392 99.6463 228.899 105.651 246.517 95.4793C252.224 105.365 255.078 110.309 255.711 115.142C256.554 121.587 254.799 128.106 250.832 133.268C247.856 137.14 242.903 140.001 232.994 145.722L190.462 170.278M116.962 42.9718L190.462 170.278" stroke="white" stroke-width="17" stroke-linecap="round" stroke-linejoin="round"/>
</svg>
