<svg width="223" height="223" viewBox="0 0 223 223" fill="none" xmlns="http://www.w3.org/2000/svg">
<path d="M117.79 0.00121519C123.857 -0.00177766 223 0.00121519 223 0.00121519L194.308 51.8349H127.834C127.834 51.8349 119.288 51.3208 115.051 54.1133C110.233 57.2887 108.153 61.1697 107.665 66.9293C107.287 71.3912 107.666 74.5799 110.506 78.0366C114.483 82.8782 128.971 88.0046 128.971 88.0046C128.971 88.0046 148.392 94.4701 159.367 101.39C169.96 108.07 176.575 111.935 183.797 122.181C190.491 131.676 193.315 138.284 194.876 149.806C196.801 164.011 194.952 173.119 188.627 185.976C181.996 199.452 175.18 206.36 162.208 213.886C150.931 220.429 143.136 223 130.107 223H0L28.9758 171.451C28.9758 171.451 98.0064 171.452 126.698 171.452C134.084 171.452 140.888 166.025 142.322 160.059C143.345 155.808 142.784 152.897 140.902 148.952C137.777 142.401 126.698 139.269 118.46 135.851C103.606 129.689 86.6433 121.042 81.5299 117.624C63.8752 105.824 56.0729 91.564 54.5427 70.3469C53.095 50.2735 62.1571 32.5443 72.1554 21.9309C91.4726 1.42522 115.051 0.00256602 117.79 0.00121519Z" fill="white"/>
</svg>
