<svg width="261" height="204" viewBox="0 0 261 204" fill="none" xmlns="http://www.w3.org/2000/svg">
<path d="M21.4098 118.733H209.667M209.667 159.801H162.333M209.667 159.801V171.532C209.667 184.493 199.071 195 186 195C172.929 195 162.333 184.494 162.333 171.533V159.801M209.667 159.801L209.667 110M162.333 159.801L67.6667 159.8M67.6667 159.8V171.533C67.6667 184.494 57.0707 195 44 195C30.9293 195 20.3333 184.494 20.3333 171.533V159.8M67.6667 159.8H20.3333M20.3333 159.8V54.2M20.3333 54.2C20.3333 34.7596 36.2273 19 55.8333 19H167.5M20.3333 54.2C13.798 54.2 8.5 59.4532 8.5 65.9333V77.6667" stroke="white" stroke-width="17" stroke-linecap="round" stroke-linejoin="round"/>
<path d="M201.748 0.000782764C208.44 -0.00176052 250.949 0.00263214 259.137 0.00350864C259.816 0.00358132 260.286 0.6657 260.076 1.31159L254.434 18.7342C254.301 19.1467 253.94 19.4261 253.506 19.4261H213.166C212.114 19.4261 211.046 20.14 210.507 21.0446C209.779 22.2659 209.867 23.9544 210.507 24.6863C217.11 32.2395 242.309 59.0802 242.309 59.0802C242.309 59.0802 246.448 63.9119 247.294 67.7124C248.426 72.794 247.782 76.5769 244.734 80.7956C242.151 84.3706 238.901 87 234.493 87H167.005C166.283 87 165.827 86.2581 166.117 85.5972L173.727 68.3096C173.886 67.9467 174.245 67.7124 174.642 67.7124H219.94C219.94 67.7124 221.691 67.7124 222.096 67.0381C222.5 66.3637 222.617 65.6082 222.096 65.0149C215.223 57.192 192.316 31.8349 192.316 31.8349C192.316 31.8349 191.507 31.0256 185.982 24.5515C183.959 22.18 183.15 16.745 183.557 13.4886C184.096 9.16962 185.654 6.8743 188.543 4.31975C192.608 0.724055 197.116 0.00254315 201.748 0.000782764Z" fill="white"/>
</svg>
