<svg width="281" height="194" viewBox="0 0 281 194" fill="none" xmlns="http://www.w3.org/2000/svg">
<path d="M21.4098 108.733H209.667M209.667 149.801H162.333M209.667 149.801V161.532C209.667 174.493 199.071 185 186 185C172.929 185 162.333 174.494 162.333 161.533V149.801M209.667 149.801L209.667 100M162.333 149.801L67.6667 149.8M67.6667 149.8H20.3333M67.6667 149.8V161.533C67.6667 174.494 57.0707 185 44 185C30.9293 185 20.3333 174.494 20.3333 161.533V149.8M20.3333 149.8V44.2M20.3333 44.2C20.3333 24.7596 36.2273 9 55.8333 9H174.167C179.47 9 184.502 10.1532 189.022 12.2205M20.3333 44.2C13.798 44.2 8.5 49.4532 8.5 55.9333V67.6667" stroke="white" stroke-width="17" stroke-linecap="round" stroke-linejoin="round"/>
<path d="M252.238 64.4781L238.001 73.4223L243.068 86.9053H260.925L252.238 64.4781Z" fill="white"/>
<path d="M241.379 35.9102L227.383 44.3204L219.299 22.9612L206.992 56.2014C206.992 56.2014 201.442 59.2718 197.219 61.5412C195.831 62.2873 194.902 62.4757 193.358 62.4757H187.688L211.698 0H227.383L241.379 35.9102Z" fill="white"/>
<path d="M243.185 19.8906L249.942 37.779L205.42 64.478C205.42 64.478 199.183 68.1631 194.803 68.8833C190.978 69.5121 188.693 69.3628 184.909 68.4828C181.509 67.6921 179.68 66.7552 176.584 65.012C173.194 63.1039 168.5 59.0047 168.5 59.0047L170.189 70.2183C170.189 70.2183 173.959 74.5227 176.584 77.0265C180.388 80.6556 182.321 83.3052 186.96 85.4367C190.349 86.9938 192.46 87.6949 196.13 87.7061C199.845 87.7175 205.179 85.5702 207.472 84.3688C216.349 79.7162 256.337 54.5994 256.337 54.5994L263.455 72.8882L280.468 29.5023L243.185 19.8906Z" fill="white"/>
</svg>
