<svg width="277" height="193" viewBox="0 0 277 193" fill="none" xmlns="http://www.w3.org/2000/svg">
<path d="M21.4102 108.233H209.667" stroke="white" stroke-width="17" stroke-linecap="round" stroke-linejoin="round"/>
<path d="M192.178 13.3602C186.898 10.2719 180.741 8.5 174.167 8.5H55.8333C36.2273 8.5 20.3333 24.2596 20.3333 43.7M8.5 67.1667V55.4333C8.5 48.9532 13.798 43.7 20.3333 43.7M20.3333 43.7V149.3M20.3333 149.3V161.033C20.3333 173.994 30.9293 184.5 44 184.5C57.0707 184.5 67.6667 173.994 67.6667 161.033V149.3M20.3333 149.3H67.6667M67.6667 149.3L162.333 149.301M162.333 149.301V161.033C162.333 173.994 172.929 184.5 186 184.5C199.071 184.5 209.667 173.993 209.667 161.032V149.301M162.333 149.301H209.667M209.667 149.301L209.667 89" stroke="white" stroke-width="17" stroke-linecap="round" stroke-linejoin="round"/>
<path d="M155.673 55.1814H145.102L166.074 34.0539C166.074 34.0539 168.556 31.9997 170.444 31.2843C172.524 30.4962 176.084 30.5 176.084 30.5H276.5L269.225 37.902H175.424C175.424 37.902 173.754 37.9739 172.812 38.4167C171.987 38.8049 170.957 39.8382 170.957 39.8382L155.673 55.1814Z" fill="white"/>
<path d="M135.971 57.9755L128.5 65.4755L228.575 65.5C228.575 65.5 232.435 65.4568 234.678 64.5686C236.345 63.9084 238.609 62.1912 238.609 62.1912L259.923 40.7941H249.498L234.825 55.5245C234.825 55.5245 233.48 56.9725 232.359 57.4608C231.474 57.8462 229.942 57.9755 229.942 57.9755H135.971Z" fill="white"/>
</svg>
