<svg width="20" height="20" viewBox="0 0 20 20" fill="none" xmlns="http://www.w3.org/2000/svg">
<mask id="path-1-inside-1_905_320" fill="white">
<path d="M18 10C18 14.4183 14.4183 18 10 18C5.58172 18 2 14.4183 2 10C2 5.58172 5.58172 2 10 2C14.4183 2 18 5.58172 18 10ZM3.6 10C3.6 13.5346 6.46538 16.4 10 16.4C13.5346 16.4 16.4 13.5346 16.4 10C16.4 6.46538 13.5346 3.6 10 3.6C6.46538 3.6 3.6 6.46538 3.6 10Z"/>
</mask>
<path d="M18 10C18 14.4183 14.4183 18 10 18C5.58172 18 2 14.4183 2 10C2 5.58172 5.58172 2 10 2C14.4183 2 18 5.58172 18 10ZM3.6 10C3.6 13.5346 6.46538 16.4 10 16.4C13.5346 16.4 16.4 13.5346 16.4 10C16.4 6.46538 13.5346 3.6 10 3.6C6.46538 3.6 3.6 6.46538 3.6 10Z" fill="white" stroke="#11335C" stroke-width="2" mask="url(#path-1-inside-1_905_320)"/>
<path d="M10 16V19" stroke="#11335C" stroke-width="2" stroke-linecap="round"/>
<path d="M10 1V4" stroke="#11335C" stroke-width="2" stroke-linecap="round"/>
<path d="M16 10H19" stroke="#11335C" stroke-width="2" stroke-linecap="round"/>
<path d="M1 10H4" stroke="#11335C" stroke-width="2" stroke-linecap="round"/>
</svg>
