<svg width="15" height="14" viewBox="0 0 15 14" fill="none" xmlns="http://www.w3.org/2000/svg">
<mask id="path-1-inside-1_905_331" fill="white">
<path d="M12.6061 6.30303C12.6061 9.7841 9.7841 12.6061 6.30303 12.6061C2.82196 12.6061 0 9.7841 0 6.30303C0 2.82196 2.82196 0 6.30303 0C9.7841 0 12.6061 2.82196 12.6061 6.30303ZM1.89091 6.30303C1.89091 8.73978 3.86628 10.7152 6.30303 10.7152C8.73978 10.7152 10.7152 8.73978 10.7152 6.30303C10.7152 3.86628 8.73978 1.89091 6.30303 1.89091C3.86628 1.89091 1.89091 3.86628 1.89091 6.30303Z"/>
</mask>
<path d="M12.6061 6.30303C12.6061 9.7841 9.7841 12.6061 6.30303 12.6061C2.82196 12.6061 0 9.7841 0 6.30303C0 2.82196 2.82196 0 6.30303 0C9.7841 0 12.6061 2.82196 12.6061 6.30303ZM1.89091 6.30303C1.89091 8.73978 3.86628 10.7152 6.30303 10.7152C8.73978 10.7152 10.7152 8.73978 10.7152 6.30303C10.7152 3.86628 8.73978 1.89091 6.30303 1.89091C3.86628 1.89091 1.89091 3.86628 1.89091 6.30303Z" fill="#11335C" stroke="#11335C" stroke-width="2" mask="url(#path-1-inside-1_905_331)"/>
<path d="M13.3943 12.9998L10.6367 10.2422" stroke="#11335C" stroke-width="2" stroke-linecap="round"/>
</svg>
