<svg width="500" height="562" viewBox="0 0 500 562" fill="none" xmlns="http://www.w3.org/2000/svg">
<circle cx="250" cy="250" r="237.5" fill="#0362AC" stroke="white" stroke-width="25"/>
<path d="M255.79 138.001C261.857 137.998 361 138.001 361 138.001L332.308 189.835H265.834C265.834 189.835 257.288 189.321 253.051 192.113C248.233 195.289 246.153 199.17 245.665 204.929C245.287 209.391 245.666 212.58 248.506 216.037C252.483 220.878 266.971 226.005 266.971 226.005C266.971 226.005 286.392 232.47 297.367 239.39C307.96 246.07 314.575 249.935 321.797 260.181C328.491 269.676 331.315 276.284 332.876 287.806C334.801 302.011 332.952 311.119 326.627 323.976C319.996 337.452 313.18 344.36 300.208 351.886C288.931 358.429 281.136 361 268.107 361H138L166.976 309.451C166.976 309.451 236.006 309.452 264.698 309.452C272.084 309.452 278.888 304.025 280.322 298.059C281.345 293.808 280.784 290.897 278.902 286.952C275.777 280.401 264.698 277.269 256.46 273.851C241.606 267.689 224.643 259.042 219.53 255.624C201.875 243.824 194.073 229.564 192.543 208.347C191.095 188.273 200.157 170.544 210.155 159.931C229.473 139.425 253.051 138.003 255.79 138.001Z" fill="#6BBA52"/>
<path d="M250 562L84 437L250 491.5L416 437L250 562Z" fill="white"/>
</svg>
