<svg width="15" height="14" viewBox="0 0 15 14" fill="none" xmlns="http://www.w3.org/2000/svg">
<path d="M11.3718 4.32672C12.6755 4.32672 13.7323 5.39429 13.7323 6.71121C13.7323 8.02812 12.6755 9.09569 11.3718 9.09569L3.70051 9.09573C2.07099 9.09573 0.75 7.76114 0.75 6.115C0.75 4.53526 1.96683 3.24265 3.50516 3.14093C4.16681 1.72766 5.59082 0.75 7.24113 0.75C9.32223 0.75 11.0442 2.3047 11.3304 4.32709C11.3442 4.32685 11.3579 4.32672 11.3718 4.32672Z" stroke="#11335C" stroke-width="1.5" stroke-linecap="round" stroke-linejoin="round"/>
<path d="M3.77415 12.7741L3.29414 10.9827M2.63844 12.1184L4.42985 11.6384M2.96629 11.5505L4.102 12.2062M3.862 11.3105L3.2063 12.4462" stroke="#888888" stroke-width="0.5" stroke-linecap="round"/>
<path d="M4.98924 11.8463L6.50844 10.7826M5.21696 10.5548L6.28072 12.074M5.8627 10.6687L5.63498 11.9602M6.39458 11.4283L5.1031 11.2006" stroke="#888888" stroke-width="0.5" stroke-linecap="round"/>
<path d="M9.30406 11.7367L7.73126 12.7195M9.00905 13.0145L8.02626 11.4417M8.37016 12.867L8.66516 11.5892M7.87876 12.0806L9.15656 12.3756" stroke="#888888" stroke-width="0.5" stroke-linecap="round"/>
<path d="M10.9212 10.263L11.4012 12.0545M12.0569 10.9187L10.2655 11.3988M11.729 11.4866L10.5933 10.8309M10.8333 11.7266L11.489 10.5909" stroke="#888888" stroke-width="0.5" stroke-linecap="round"/>
</svg>
