<svg width="22" height="17" viewBox="0 0 22 17" fill="none" xmlns="http://www.w3.org/2000/svg">
<path d="M7.73295 16.4678L7.75291 16.4079C7.76262 16.3788 7.77899 16.3523 7.80072 16.3306L7.83982 16.2916C7.85189 16.2795 7.85866 16.2631 7.85866 16.2461C7.85866 16.2106 7.88745 16.1818 7.92294 16.1818C7.93999 16.1818 7.95635 16.175 7.9684 16.163L7.9762 16.1552C8.0117 16.1197 8.0117 16.0621 7.9762 16.0266C7.95915 16.0096 7.94957 15.9865 7.94957 15.9623V15.9207C7.94957 15.8566 7.98158 15.7968 8.03485 15.7613L8.12376 15.7021C8.18801 15.6592 8.26351 15.6364 8.34074 15.6364H8.40412H8.68077C8.73798 15.6364 8.79439 15.623 8.84556 15.5975L9.03249 15.504C9.08924 15.4756 9.11649 15.4098 9.09642 15.3496L9.0906 15.3322C9.06595 15.2582 9.121 15.1818 9.19898 15.1818H9.23966C9.28028 15.1818 9.31321 15.2147 9.31321 15.2554C9.31321 15.2668 9.31055 15.278 9.30545 15.2883L9.23783 15.4235C9.22762 15.4439 9.2223 15.4664 9.2223 15.4893C9.2223 15.5705 9.2881 15.6364 9.36934 15.6364H9.67685C9.94957 15.6364 9.76776 15.5455 9.94957 15.5455C10.1314 15.5455 10.2223 15.4545 10.3132 15.4545C10.3451 15.4545 10.3898 15.4429 10.435 15.4273C10.5342 15.393 10.6419 15.3823 10.7414 15.4155C10.8178 15.4409 10.8845 15.489 10.9328 15.5534L11.0469 15.7055C11.0958 15.7708 11.1844 15.7917 11.2574 15.7552C11.2934 15.7372 11.3347 15.7326 11.3738 15.7424L11.5609 15.7892C11.6376 15.8084 11.7101 15.8413 11.7779 15.8819C11.8732 15.939 11.9889 16 12.0405 16C12.0803 16 12.1657 15.9288 12.1509 15.8918C12.1388 15.8619 12.1314 15.8362 12.1314 15.8182C12.1314 15.7273 11.8587 15.4545 11.8587 15.3636C11.8587 15.2727 11.9496 15.3636 12.0405 15.3636C12.1314 15.3636 12.2223 15.2727 12.2223 15.1818C12.2223 15.1355 12.2469 15.0622 12.2726 14.9993C12.2972 14.9391 12.3132 14.8752 12.3132 14.8101V14.7006C12.3132 14.6595 12.3296 14.62 12.3587 14.5909C12.3878 14.5618 12.4275 14.5441 12.4681 14.551C12.5251 14.5607 12.5859 14.5848 12.5859 14.6364C12.5859 14.7273 12.6768 14.7273 12.7678 14.8182C12.7955 14.8459 12.8241 14.8657 12.8506 14.8796C12.9015 14.9063 12.9496 14.8625 12.9496 14.8049C12.9496 14.7275 13.0306 14.6783 13.0956 14.7204C13.1425 14.7509 13.1893 14.7851 13.2223 14.8182C13.2786 14.8745 13.3749 14.8981 13.4436 14.9059C13.4764 14.9096 13.5082 14.896 13.5315 14.8726C13.5649 14.8393 13.6142 14.8276 13.659 14.8425L13.8105 14.893C13.8424 14.9037 13.8758 14.9091 13.9094 14.9091H14.0937C14.1647 14.9091 14.2223 14.8515 14.2223 14.7805C14.2223 14.7464 14.2358 14.7137 14.26 14.6896L14.262 14.6876C14.294 14.6556 14.3399 14.6417 14.3843 14.6506L14.7678 14.7273L14.7992 14.7377C14.9556 14.7899 15.0901 14.8927 15.1816 15.0298L15.1928 15.0466C15.2124 15.0761 15.2349 15.1035 15.26 15.1286L15.3127 15.1813C15.4244 15.2931 15.5897 15.3321 15.7396 15.2821L15.7515 15.2781C15.7623 15.2745 15.7729 15.2702 15.7831 15.2651L15.9836 15.1648C16.0515 15.1309 16.1314 15.1802 16.1314 15.2562C16.1314 15.2671 16.1332 15.278 16.1366 15.2885L16.157 15.3495C16.1988 15.475 16.2892 15.5808 16.4185 15.6086C16.4921 15.6245 16.5803 15.6364 16.6768 15.6364H16.8587C16.9496 15.6364 16.6768 15.5455 16.5859 15.5455C16.495 15.5455 16.5859 15.3636 16.6768 15.2727C16.7309 15.2187 16.8217 15.2617 16.8897 15.3122C16.9276 15.3403 16.9782 15.3493 17.0205 15.3282C17.0792 15.2988 17.0992 15.2245 17.0628 15.1698C17.0144 15.0972 17.0664 15 17.1536 15H17.4041C17.4571 15 17.5775 15.0321 17.6741 15.0613C17.736 15.08 17.7915 15.1147 17.8372 15.1604L17.9843 15.3075C18.0655 15.3887 18.1972 15.3887 18.2785 15.3075C18.3013 15.2846 18.3186 15.2568 18.3283 15.2261C18.3601 15.1255 18.4041 14.9711 18.4041 14.9091C18.4041 14.8778 18.3929 14.8566 18.3777 14.8426C18.3433 14.811 18.2906 14.8107 18.2464 14.7959L18.1127 14.7514C18.0673 14.7362 18.0316 14.7005 18.0164 14.655L17.9864 14.5649C17.9683 14.5106 18.0087 14.4545 18.0659 14.4545C18.1044 14.4545 18.1379 14.4284 18.1473 14.391L18.1931 14.2078C18.2119 14.1324 18.2032 14.0527 18.1684 13.9831L18.1521 13.9504C18.1383 13.9229 18.1276 13.8941 18.1202 13.8643L18.0693 13.6607C18.0524 13.593 17.9915 13.5455 17.9217 13.5455C17.8813 13.5455 17.8426 13.5294 17.8141 13.5009L17.7131 13.3998C17.6892 13.376 17.6713 13.347 17.6607 13.3151C17.5995 13.1317 17.8028 12.954 17.9442 13.0857L17.9496 13.0909C18.0029 13.1442 18.0921 13.2008 18.1597 13.2391C18.2009 13.2625 18.2448 13.2802 18.2897 13.2952L18.4222 13.3394C18.4704 13.3554 18.521 13.3636 18.5718 13.3636H18.7026C18.7443 13.3636 18.7843 13.3471 18.8138 13.3175C18.8841 13.2473 18.8725 13.1304 18.7899 13.0753L18.7256 13.0325C18.6937 13.0112 18.6678 12.9819 18.6506 12.9476L18.572 12.7904C18.5236 12.6934 18.5236 12.5793 18.572 12.4823C18.5813 12.4638 18.5922 12.4462 18.6046 12.4297L18.7638 12.2173C18.8264 12.1339 18.8717 12.0388 18.897 11.9376L18.9184 11.852C18.9388 11.7704 18.981 11.6959 19.0405 11.6364C19.1 11.5769 19.1422 11.5023 19.1626 11.4207L19.2122 11.2222C19.2189 11.1954 19.2223 11.1678 19.2223 11.1402V11.0938C19.2223 11.0338 19.2462 10.9761 19.2887 10.9336L19.2958 10.9265C19.3605 10.8618 19.3765 10.763 19.3356 10.6812C19.3209 10.6517 19.3132 10.6192 19.3132 10.5862V10.4442C19.3132 10.3906 19.3185 10.3372 19.329 10.2846L19.372 10.0698C19.3932 9.96369 19.435 9.86276 19.495 9.77273C19.5551 9.68269 19.5969 9.58177 19.6181 9.47566L19.6324 9.40424C19.6616 9.25782 19.7234 9.11981 19.8129 9.00036L19.9496 8.81818L20.1314 8.54545L20.1942 8.41978C20.2114 8.38537 20.2466 8.36364 20.2851 8.36364C20.3035 8.36364 20.3216 8.36864 20.3373 8.37811L20.535 8.4967C20.6653 8.57489 20.834 8.53694 20.9183 8.4105C20.939 8.37956 20.9533 8.34487 20.9606 8.30841L20.9985 8.11913C21.0202 8.01047 20.9371 7.90909 20.8263 7.90909C20.7883 7.90909 20.7513 7.89677 20.7209 7.87397L20.5983 7.78202C20.4733 7.68822 20.3872 7.55161 20.3565 7.39832L20.3427 7.32918C20.3232 7.23175 20.3216 7.13159 20.3379 7.03358L20.3912 6.71376C20.3998 6.66224 20.4124 6.61148 20.4289 6.56193L20.5821 6.1025C20.6439 5.91703 20.65 5.71751 20.5996 5.52861L20.3977 4.77126C20.3432 4.56715 20.2162 4.3899 20.0405 4.27273L19.817 4.16099C19.7311 4.11804 19.6768 4.03024 19.6768 3.9342C19.6768 3.9175 19.6752 3.90084 19.6719 3.88447L19.6035 3.54244C19.5921 3.48513 19.5639 3.43249 19.5226 3.39116L19.366 3.23465C19.3369 3.20547 19.3369 3.15817 19.366 3.12899C19.3888 3.10625 19.3944 3.07151 19.38 3.04274L19.3207 2.92402C19.3157 2.91408 19.3114 2.9038 19.3079 2.89326C19.2627 2.75767 19.1079 2.69355 18.9801 2.75746L18.8903 2.80238C18.8693 2.81288 18.847 2.82074 18.8246 2.82776C18.7307 2.85718 18.6544 2.90649 18.5938 2.96313C18.4517 3.09584 18.2434 3.20842 18.0628 3.13621C17.9899 3.10703 17.9307 3.05186 17.8912 2.98392C17.8068 2.83868 17.6636 2.6231 17.495 2.45455C17.4782 2.43767 17.4634 2.42359 17.4504 2.41204C17.3117 2.28793 17.303 2.67477 17.1204 2.71129C17.0683 2.72171 17.0205 2.74724 16.9829 2.78483L16.495 3.27273C16.4041 3.36364 16.495 3.09091 16.495 3C16.495 2.97158 16.4488 2.92374 16.3834 2.87056C16.1939 2.71655 15.921 2.81818 15.6768 2.81818C15.495 2.81818 15.0405 3 15.0405 2.81818C15.0405 2.591 14.8918 2.39741 14.7936 2.19252C14.7775 2.1589 14.7678 2.12458 14.7678 2.09091C14.7678 1.90909 14.5859 1.90909 14.5859 1.72727C14.5859 1.54545 14.8587 1.45455 14.9496 1.27273C15.0405 1.09091 14.5859 1.09091 14.5859 1C14.5859 0.909091 14.6768 0.636364 14.5859 0.454545C14.495 0.272727 14.3132 0.181818 14.2223 0.181818C14.1314 0.181818 13.7678 0 13.495 0C13.2223 0 13.3132 0.0909091 13.2223 0.272727C13.2061 0.305126 13.1928 0.334638 13.1808 0.363835C13.0257 0.742182 12.6533 0.982419 12.3095 1.20389C12.2765 1.22517 12.2469 1.24812 12.2223 1.27273C12.0405 1.45455 12.2223 1.45455 12.2223 1.72727C12.2223 2 12.2223 1.81818 12.1314 1.90909C12.0405 2 12.1314 2.27273 12.2223 2.36364C12.3132 2.45455 12.1314 2.63636 12.1314 2.81818C12.1314 2.86711 12.0971 2.88998 12.0458 2.89648C11.8029 2.92727 11.6163 2.69718 11.5068 2.47812L11.477 2.41854C11.3713 2.20699 11.1939 2.03978 10.9765 1.94661L10.7045 1.83005C10.6863 1.82222 10.6666 1.81818 10.6467 1.81818C10.6078 1.81818 10.5702 1.8334 10.5442 1.86233C10.4821 1.93138 10.4041 2.03258 10.4041 2.09091C10.4041 2.18182 10.0405 2 10.0405 1.90909C10.0405 1.74976 9.76675 1.79477 9.69566 1.93736C9.68398 1.96078 9.67685 1.98235 9.67685 2C9.67685 2.07273 9.43442 2.09091 9.31321 2.09091C9.0995 2.09091 8.90956 2.23592 8.87704 2.44714C8.86609 2.51823 8.85867 2.58546 8.85867 2.63636V3C8.85867 3.12274 8.67685 3.19041 8.67685 3.31315V3.37183C8.67685 3.47824 8.74467 3.56838 8.81739 3.64606C8.84174 3.67208 8.85867 3.7001 8.85867 3.72727C8.85867 3.76592 8.84155 3.78917 8.82096 3.80247C8.78992 3.82251 8.75055 3.82678 8.7175 3.84331C8.63687 3.88362 8.58594 3.96602 8.58594 4.05617V4.36364C8.58594 4.45455 8.67685 4.63636 8.76776 4.81818C8.85867 5 8.76776 5 8.76776 5.09091C8.76776 5.18182 8.85867 5.27273 8.94957 5.36364C9.04048 5.45455 8.94957 5.63636 8.94957 5.72727C8.94957 5.78954 8.77184 5.81183 8.64465 5.81695C8.60603 5.8185 8.56794 5.82718 8.53336 5.84447C8.45344 5.88443 8.35824 5.8785 8.28389 5.82894L8.15332 5.74189C8.13874 5.73217 8.12515 5.72103 8.11276 5.70864L8.11028 5.70616C8.01807 5.61395 7.87208 5.60357 7.76776 5.68182L7.6255 5.78851C7.6028 5.80554 7.57103 5.80328 7.55097 5.78321C7.52345 5.75569 7.47705 5.76322 7.45965 5.79803L7.41755 5.88223C7.37295 5.97143 7.24693 5.97493 7.19745 5.88834L7.0417 5.61577C6.99188 5.52858 6.87863 5.50184 6.79507 5.55755L6.7907 5.56046C6.7245 5.6046 6.63635 5.59587 6.58009 5.53961C6.52929 5.48881 6.5167 5.4112 6.54883 5.34695L6.56351 5.31759C6.57826 5.28809 6.58594 5.25556 6.58594 5.22257V5.05015C6.58594 5.01717 6.57826 4.98464 6.56351 4.95514C6.52261 4.87335 6.53864 4.77457 6.60331 4.70991L6.61049 4.70272C6.65298 4.66023 6.67685 4.60261 6.67685 4.54252V4.53562C6.67685 4.48299 6.65978 4.43179 6.6282 4.38969L6.45399 4.1574C6.42767 4.12231 6.37637 4.11866 6.34535 4.14968L6.28658 4.20845C6.26286 4.23217 6.2223 4.21537 6.2223 4.18182V3.90909C6.2223 3.85904 6.13618 3.80612 6.05285 3.7681C5.9859 3.73756 5.91206 3.72727 5.83847 3.72727C5.73218 3.72727 5.62034 3.74465 5.54468 3.8193C5.51591 3.84767 5.49503 3.8789 5.49503 3.90909C5.49503 3.94919 5.51346 3.99114 5.53507 4.02578C5.5641 4.07232 5.59844 4.11592 5.62297 4.16498C5.6584 4.23584 5.68693 4.34449 5.6095 4.36125C5.60237 4.36279 5.59453 4.36364 5.58594 4.36364C5.49503 4.36364 5.49503 4.45455 5.40412 4.54545C5.36149 4.58808 5.3724 4.6998 5.34544 4.75372L5.33174 4.78112C5.31988 4.80485 5.29907 4.8229 5.2739 4.83128L5.08904 4.89291C5.05688 4.90363 5.0232 4.90909 4.9893 4.90909C4.90566 4.90909 4.82544 4.94232 4.76629 5.00147L4.74971 5.01805C4.70203 5.06572 4.64229 5.09955 4.57688 5.1159L4.42755 5.15323C4.35498 5.17138 4.29396 5.22033 4.2605 5.28724L4.24503 5.31818C4.23028 5.34769 4.20635 5.37161 4.17685 5.38636C4.10154 5.42402 4.07101 5.5156 4.10866 5.59091L4.11403 5.60164C4.12545 5.62448 4.13139 5.64966 4.13139 5.67519V5.70237C4.13139 5.77652 4.10193 5.84764 4.0495 5.90007L3.97947 5.97011C3.95967 5.98991 3.94319 6.01277 3.93067 6.03781C3.88654 6.12607 3.79633 6.18182 3.69766 6.18182H3.49503H3.37749C3.33633 6.18182 3.29686 6.16547 3.26776 6.13636C3.23865 6.10726 3.2223 6.06779 3.2223 6.02663V6.01103C3.2223 5.90452 3.13596 5.81818 3.02945 5.81818H2.98543C2.90624 5.81818 2.83173 5.77893 2.79123 5.71088C2.73524 5.61681 2.67685 5.50502 2.67685 5.45455C2.67685 5.41006 2.63149 5.29528 2.5824 5.1851C2.53134 5.0705 2.41578 5 2.29032 5C2.14244 5 2.01247 5.09803 1.97185 5.24023L1.89258 5.51765C1.87409 5.58236 1.80538 5.6186 1.74153 5.59732L1.72753 5.59265C1.65787 5.56943 1.58594 5.62128 1.58594 5.6947C1.58594 5.71594 1.57965 5.7367 1.56787 5.75437L1.50071 5.85512C1.43811 5.94902 1.34599 6.01938 1.23893 6.05506L1.14079 6.08778C1.13453 6.08986 1.12843 6.09239 1.12253 6.09534L1.08323 6.11499C1.01747 6.14787 1.00325 6.2355 1.05524 6.28748C1.0973 6.32954 1.0973 6.39773 1.05524 6.43979L1.04048 6.45455C1.01018 6.48485 0.931392 6.54545 0.858665 6.54545C0.767756 6.54545 0.767756 6.54545 0.585938 6.45455C0.404119 6.36364 0.495028 6.36364 0.40404 6.36364C0.313052 6.36364 0.131313 6.45455 0.040404 6.63636C-0.0505051 6.81818 0.040404 6.72727 0.040404 6.81818C0.040404 6.876 0.0787068 7.01425 0.109637 7.11418C0.123628 7.15939 0.14238 7.20285 0.161136 7.24629C0.190248 7.31372 0.222222 7.40172 0.222222 7.45455C0.222222 7.47229 0.225829 7.49039 0.231722 7.50806C0.260654 7.59481 0.285547 7.69153 0.244651 7.77332C0.229901 7.80282 0.221888 7.83537 0.223716 7.8683C0.229298 7.9689 0.251852 8.12054 0.313131 8.18182C0.40404 8.27273 0.40404 8.36364 0.40404 8.45455C0.40404 8.50685 0.466745 8.5623 0.524504 8.60058C0.563946 8.62673 0.608389 8.64387 0.653279 8.65884L0.737201 8.68681C0.817598 8.71361 0.901791 8.72727 0.986537 8.72727H1.20339C1.27366 8.72727 1.34104 8.75519 1.39073 8.80487C1.39959 8.81373 1.40782 8.82322 1.41534 8.83324L1.55744 9.02271C1.63256 9.12287 1.75045 9.18182 1.87565 9.18182H1.98609C2.02087 9.18182 2.05422 9.19563 2.07881 9.22023C2.11138 9.2528 2.12448 9.30007 2.11331 9.34476L2.05556 9.57574C2.04549 9.61601 2.0404 9.65735 2.0404 9.69885V9.78053C2.0404 9.86285 2.07311 9.94179 2.13131 10L2.22222 10.0909L2.39499 10.2637C2.4612 10.3299 2.5163 10.4063 2.55817 10.4901L2.5726 10.5189C2.58143 10.5366 2.58899 10.5549 2.59523 10.5736L2.65243 10.7452C2.66734 10.7899 2.6557 10.8393 2.62234 10.8726L2.61728 10.8777C2.59716 10.8978 2.58586 10.9251 2.58586 10.9535C2.58586 11.0233 2.65144 11.0745 2.71914 11.0576L2.76768 11.0455C2.86003 11.0224 2.94949 11.0922 2.94949 11.1874V11.3838C2.94949 11.4303 2.96033 11.4762 2.98113 11.5178L3.40404 12.3636L3.43506 12.4257C3.47481 12.5052 3.50378 12.5896 3.52121 12.6768L3.58586 13L3.63099 13.1805C3.6606 13.299 3.73009 13.4036 3.82776 13.4769L3.9416 13.5623C4.0038 13.6089 4.0404 13.6821 4.0404 13.7599C4.0404 13.7982 4.03148 13.836 4.01433 13.8703L3.99642 13.9062C3.96637 13.9662 3.96143 14.0358 3.98267 14.0995C4.01715 14.203 4.11394 14.2727 4.22297 14.2727H4.37256C4.45276 14.2727 4.53158 14.2937 4.60121 14.3334L5.01574 14.5703C5.07395 14.6036 5.08459 14.6831 5.03719 14.7305C4.99182 14.7759 4.9993 14.8514 5.05268 14.887L5.18831 14.9774C5.21075 14.9924 5.2356 15.0033 5.26176 15.0099L5.41185 15.0474C5.72783 15.1264 5.94949 15.4103 5.94949 15.736C5.94949 15.9594 6.05468 16.1698 6.23341 16.3038L6.26788 16.3297C6.29801 16.3523 6.3265 16.377 6.35313 16.4036L6.66857 16.7191C6.82372 16.8742 7.07527 16.8742 7.23042 16.7191L7.3264 16.6231C7.37398 16.5755 7.44437 16.5589 7.50821 16.5802C7.6013 16.6112 7.70192 16.5609 7.73295 16.4678Z" fill="white"/>
<path d="M8.80638 10.9097L8.86588 10.9494C8.98987 11.032 9.15495 11.0157 9.26032 10.9103C9.31892 10.8517 9.35185 10.7722 9.35188 10.6894L9.35192 10.5461C9.35187 10.4457 9.43325 10.3643 9.53366 10.3643H9.54477C9.59591 10.3643 9.64496 10.3846 9.68113 10.4207L9.70245 10.4421C9.71113 10.4507 9.72115 10.458 9.73213 10.4635L9.81606 10.5054C9.85342 10.5241 9.89737 10.4969 9.89737 10.4552C9.89737 10.4134 9.94133 10.3862 9.97868 10.4049L10.0481 10.4396C10.0683 10.4497 10.0846 10.466 10.0945 10.4862C10.1581 10.6162 10.261 10.8427 10.261 10.9097C10.261 10.9579 10.3409 11.0355 10.4213 11.0999C10.4893 11.1544 10.5337 11.2348 10.5337 11.322C10.5337 11.35 10.5383 11.3778 10.5468 11.4045C10.5787 11.5047 10.6246 11.6646 10.6246 11.7279C10.6246 11.7873 10.7055 11.7699 10.7682 11.745C10.7921 11.7355 10.8065 11.7116 10.8065 11.6859C10.8065 11.6567 10.8252 11.6308 10.8529 11.6215L10.9389 11.5928C11.0217 11.5652 11.1128 11.5965 11.1612 11.6691L11.236 11.7813C11.2526 11.8062 11.2658 11.8332 11.2753 11.8615L11.321 11.9987C11.3394 12.0541 11.3913 12.0915 11.4498 12.0915C11.5012 12.0915 11.5483 12.1206 11.5713 12.1666L11.6888 12.4017C11.7065 12.4371 11.7298 12.4695 11.7579 12.4975C11.845 12.5846 11.97 12.6225 12.0908 12.5983L12.1922 12.578C12.2963 12.5572 12.392 12.506 12.4671 12.4309L12.5682 12.3298C12.6043 12.2937 12.6246 12.2446 12.6246 12.1935C12.6246 12.087 12.711 12.0006 12.8175 12.0006H12.8974C13.0186 12.0006 13.261 11.9824 13.261 11.9097C13.261 11.7303 13.4551 11.5644 13.5194 11.3969C13.5235 11.386 13.5283 11.3751 13.5337 11.3643C13.6246 11.1824 13.7156 11.2733 13.8065 11.2733C13.8974 11.2733 13.8065 11.1824 13.8974 11.0915C13.9883 11.0006 13.8974 10.8188 13.9883 10.7279C14.0792 10.637 13.9883 10.4552 14.0792 10.2733C14.1398 10.1522 14.1625 10.0225 14.1684 9.94762C14.1704 9.92292 14.1774 9.89871 14.1912 9.87809C14.2521 9.78664 14.1745 9.66656 14.0661 9.68462L13.991 9.69713C13.8944 9.71324 13.8065 9.63873 13.8065 9.54078V9.18244V8.69317C13.8065 8.65622 13.8151 8.61978 13.8316 8.58673L13.8329 8.58412C13.8724 8.50509 13.9883 8.45772 13.9883 8.54608C13.9883 8.71508 14.2638 8.49804 14.2234 8.33394C14.2102 8.2804 14.1928 8.22787 14.1701 8.18244C14.0792 8.00062 13.9883 8.09153 13.8974 8.00062C13.8065 7.90971 13.7156 8.00062 13.6246 8.00062H13.3519C13.2913 8.00062 13.1519 8.0188 13.0792 8.09153C13.0437 8.12704 13.0067 8.1062 12.9747 8.06498C12.9054 7.97589 12.8464 7.87573 12.7525 7.81313C12.6691 7.75755 12.5712 7.72789 12.471 7.72789H12.3519C12.1291 7.72789 11.9422 7.58301 11.7749 7.43579C11.7264 7.39307 11.6748 7.36426 11.6246 7.36426C11.4428 7.36426 11.4428 7.45517 11.261 7.54608C11.0792 7.63699 11.3519 7.8188 11.261 7.90971C11.1701 8.00062 11.0792 7.90971 10.9883 7.90971C10.8974 7.90971 10.7156 7.8188 10.6246 7.8188C10.5367 7.8188 10.5652 7.99834 10.4775 7.99315C10.2945 7.98235 10.0851 7.9581 9.98828 7.90971C9.95597 7.89356 9.83638 7.76817 9.80211 7.75675L9.7492 7.73911C9.7299 7.73267 9.70877 7.74137 9.70024 7.75985C9.66849 7.82867 9.62464 7.93876 9.62464 8.00062C9.62464 8.09153 9.71555 8.36426 9.71555 8.45517C9.71555 8.49392 9.68113 8.58603 9.63981 8.68196C9.5849 8.80941 9.43312 8.8594 9.309 8.79734L9.24527 8.76548C9.1992 8.74245 9.1701 8.69536 9.1701 8.64385C9.1701 8.55102 9.07916 8.48548 8.9911 8.51483L8.93497 8.53354C8.91192 8.54123 8.88652 8.53523 8.86934 8.51807C8.83837 8.48712 8.78643 8.49574 8.76958 8.53616C8.7426 8.6009 8.71555 8.67929 8.71555 8.72789C8.71555 8.73551 8.71755 8.74386 8.72122 8.75277C8.81168 8.97214 9.02157 9.12677 9.09766 9.35153C9.15575 9.52311 9.21933 9.68621 9.26101 9.72789C9.35192 9.8188 8.98828 10.0915 8.98828 10.0006C8.98828 9.90971 8.53366 9.8188 8.44275 9.8188C8.35184 9.8188 8.44275 9.90971 8.44275 10.0006C8.44275 10.0915 8.62457 10.2733 8.62457 10.4552V10.7279C8.62457 10.8006 8.74578 10.8794 8.80638 10.9097Z" fill="#EEEEEE"/>
</svg>
