<svg width="16" height="15" viewBox="0 0 16 15" fill="none" xmlns="http://www.w3.org/2000/svg">
<path d="M8.61487 7.75H6.78621C6.74933 7.75 6.71545 7.7703 6.69804 7.80281L4.55833 11.8009C4.52268 11.8676 4.57094 11.9481 4.64649 11.9481H5.81206C5.89196 11.9481 5.93959 12.0372 5.89524 12.1036L4.42977 14.2992C4.36816 14.3915 4.48034 14.5005 4.57083 14.4363L8.87316 11.3822C8.95261 11.3258 8.91271 11.2007 8.81528 11.2007H6.97064C6.89368 11.2007 6.84556 11.1174 6.88402 11.0507L8.70149 7.89997C8.73995 7.8333 8.69183 7.75 8.61487 7.75Z" fill="#F1C40F"/>
<path d="M3.93182 9.75C2.17455 9.75 0.75 8.31078 0.75 6.53559C0.75 4.832 2.06222 3.43806 3.72115 3.32837C4.43467 1.80431 5.97031 0.75 7.75 0.75C9.99426 0.75 11.8512 2.42658 12.1598 4.60752C12.1748 4.60726 12.1895 4.60712 12.2045 4.60712C13.6104 4.60712 14.75 5.75838 14.75 7.17854C14.75 8.59869 13.6104 9.74995 12.2045 9.74995H9.75" stroke="#11335C" stroke-width="1.5" stroke-linecap="round" stroke-linejoin="round"/>
</svg>
