<svg width="16" height="15" viewBox="0 0 16 15" fill="none" xmlns="http://www.w3.org/2000/svg">
<path d="M8.08065 7.75H6.76238C6.72484 7.75 6.69046 7.77103 6.67336 7.80445L5.08789 10.903C5.05384 10.9695 5.10217 11.0485 5.17691 11.0485H5.97244C6.0514 11.0485 6.09921 11.1358 6.05673 11.2023L5.04219 12.7921C4.98247 12.8857 5.09696 12.9924 5.1861 12.9262L8.26327 10.6415C8.34063 10.5841 8.3 10.4613 8.20366 10.4613H6.92406C6.84795 10.4613 6.79974 10.3796 6.83649 10.313L8.16821 7.89829C8.20497 7.83165 8.15676 7.75 8.08065 7.75Z" fill="#F1C40F"/>
<path d="M3.93182 9.75C2.17455 9.75 0.75 8.31078 0.75 6.53559C0.75 4.832 2.06222 3.43806 3.72115 3.32837C4.43467 1.80431 5.97031 0.75 7.75 0.75C9.99426 0.75 11.8512 2.42658 12.1598 4.60752C12.1748 4.60726 12.1895 4.60712 12.2045 4.60712C13.6104 4.60712 14.75 5.75838 14.75 7.17854C14.75 8.59869 13.6104 9.74995 12.2045 9.74995H9.75" stroke="#11335C" stroke-width="1.5" stroke-linecap="round" stroke-linejoin="round"/>
<path d="M3.75 13.75V11.75M9.75 12.25V13.25M11.75 11.75V14.25M7.75 12.75V13.75M5.75 14.25V13.75" stroke="#7CC4C1" stroke-linecap="round"/>
</svg>
