<svg width="500" height="562" viewBox="0 0 500 562" fill="none" xmlns="http://www.w3.org/2000/svg">
<circle cx="250" cy="250" r="237.5" fill="#11335C" stroke="white" stroke-width="25"/>
<path d="M234.962 172.972L149.899 222.083C139.99 227.804 135.033 230.666 132.057 234.537C128.09 239.699 126.339 246.221 127.182 252.666C127.815 257.5 130.669 262.443 136.376 272.329C153.994 262.158 176.499 268.156 186.647 285.734C196.796 303.311 190.742 325.808 173.125 335.979C178.833 345.865 181.687 350.809 185.557 353.773C190.717 357.726 197.238 359.467 203.692 358.612C208.532 357.971 213.49 355.11 223.399 349.389L308.462 300.278M234.962 172.972L277.494 148.416C287.403 142.695 292.357 139.835 297.197 139.194C303.651 138.339 310.176 140.082 315.336 144.035C319.206 147 322.06 151.943 327.768 161.829C310.151 172 304.096 194.492 314.244 212.069C324.392 229.646 346.899 235.651 364.517 225.479C370.224 235.365 373.078 240.309 373.711 245.142C374.554 251.587 372.799 258.106 368.832 263.268C365.856 267.14 360.903 270.001 350.994 275.722L308.462 300.278M234.962 172.972L308.462 300.278" stroke="white" stroke-width="17" stroke-linecap="round" stroke-linejoin="round"/>
<path d="M250 562L84 437L250 491.5L416 437L250 562Z" fill="white"/>
</svg>
