<svg width="35" height="35" viewBox="0 0 35 35" fill="none" xmlns="http://www.w3.org/2000/svg">
<path d="M17.4999 12.3229V18.1563M19.3171 5.04407L21.0977 6.56147C21.5463 6.94375 22.1033 7.17487 22.6908 7.22175L25.0228 7.4076C26.3938 7.51701 27.4828 8.60533 27.5922 9.97635L27.7776 12.3087C27.8245 12.8962 28.0564 13.454 28.4387 13.9026L29.9554 15.6827C30.8475 16.7295 30.8477 18.2693 29.9556 19.3161L28.4389 21.0965C28.0566 21.5451 27.8249 22.1031 27.778 22.6906L27.5915 25.0225C27.4821 26.3936 26.3948 27.4826 25.0237 27.592L22.691 27.7781C22.1035 27.825 21.5459 28.0555 21.0973 28.4378L19.3171 29.9552C18.2703 30.8473 16.7295 30.8475 15.6827 29.9554L13.9025 28.4379C13.4539 28.0556 12.8964 27.8247 12.3089 27.7778L9.97613 27.592C8.6051 27.4826 7.51779 26.3938 7.40838 25.0228L7.22181 22.6908C7.17493 22.1032 6.94329 21.5457 6.56101 21.0971L5.04428 19.3162C4.15218 18.2694 4.15177 16.73 5.04386 15.6832L6.56195 13.9023C6.94424 13.4537 7.17365 12.8962 7.22054 12.3087L7.40709 9.97663C7.5165 8.6056 8.60696 7.51687 9.97799 7.40746L12.3082 7.2216C12.8957 7.17472 13.4535 6.94379 13.9021 6.56151L15.6829 5.04407C16.7297 4.15198 18.2703 4.15198 19.3171 5.04407ZM17.5726 22.5313V22.6771L17.4273 22.6765V22.5313H17.5726Z" stroke="white" stroke-width="2" stroke-linecap="round" stroke-linejoin="round"/>
</svg>
