<svg width="29" height="29" viewBox="0 0 29 29" fill="none" xmlns="http://www.w3.org/2000/svg">
<path d="M17.7227 3.18647L15.9422 1.66907C14.8953 0.776976 13.3547 0.776976 12.3079 1.66907L10.5271 3.18651C10.0785 3.56879 9.52069 3.79972 8.93317 3.8466L6.60299 4.03246C5.23196 4.14187 4.1415 5.2306 4.03209 6.60163L3.84554 8.93368C3.79865 9.5212 3.56924 10.0787 3.18695 10.5273L1.66886 12.3082C0.776766 13.355 0.777185 14.8944 1.66928 15.9412L3.18601 17.7221C3.56829 18.1707 3.79993 18.7282 3.84681 19.3158L4.03338 21.6478C4.14279 23.0188 5.2301 24.1076 6.60113 24.217L8.93389 24.4028C9.52141 24.4497 10.0789 24.6806 10.5275 25.0629L12.3077 26.5804C12.8427 27.0363 13.5066 27.2592 14.1678 27.2491C14.8003 27.2394 15.4303 27.0164 15.9422 26.5802L17.7223 25.0628C18.1709 24.6805 18.7285 24.45 19.316 24.4031L21.6487 24.217C23.0198 24.1076 24.1071 23.0186 24.2165 21.6475L24.403 19.3156C24.4499 18.7281 24.6816 18.1701 25.0639 17.7215L26.5806 15.9411C27.4727 14.8943 27.4725 13.3545 26.5804 12.3077L25.0637 10.5276C24.6814 10.079 24.4495 9.52119 24.4026 8.93368L24.2172 6.60135C24.1078 5.23033 23.0188 4.14201 21.6478 4.0326L19.3158 3.84675C18.7283 3.79987 18.1713 3.56875 17.7227 3.18647Z" fill="#44658C"/>
<path d="M14.1678 15.9412V27.2491M15.9422 1.66907L17.7227 3.18647C18.1713 3.56875 18.7283 3.79987 19.3158 3.84675L21.6478 4.0326C23.0188 4.14201 24.1078 5.23033 24.2172 6.60135L24.4026 8.93368C24.4495 9.52119 24.6814 10.079 25.0637 10.5276L26.5804 12.3077C27.4725 13.3545 27.4727 14.8943 26.5806 15.9411L25.0639 17.7215C24.6816 18.1701 24.4499 18.7281 24.403 19.3156L24.2165 21.6475C24.1071 23.0186 23.0198 24.1076 21.6487 24.217L19.316 24.4031C18.7285 24.45 18.1709 24.6805 17.7223 25.0628L15.9422 26.5802C14.8953 27.4723 13.3545 27.4725 12.3077 26.5804L10.5275 25.0629C10.0789 24.6806 9.52141 24.4497 8.93389 24.4028L6.60113 24.217C5.2301 24.1076 4.14279 23.0188 4.03338 21.6478L3.84681 19.3158C3.79993 18.7282 3.56829 18.1707 3.18601 17.7221L1.66928 15.9412C0.777185 14.8944 0.776766 13.355 1.66886 12.3082L3.18695 10.5273C3.56924 10.0787 3.79865 9.5212 3.84554 8.93368L4.03209 6.60163C4.1415 5.2306 5.23196 4.14187 6.60299 4.03246L8.93317 3.8466C9.52069 3.79972 10.0785 3.56879 10.5271 3.18651L12.3079 1.66907C13.3547 0.776976 14.8953 0.776976 15.9422 1.66907Z" stroke="white" stroke-width="2" stroke-linecap="round" stroke-linejoin="round"/>
<circle cx="14.125" cy="14.125" r="3.125" fill="white"/>
</svg>
